<svg width="500" height="500" viewBox="0 0 500 500" fill="none" xmlns="http://www.w3.org/2000/svg">
  <defs>
    <radialGradient id="ringA" cx="35%" cy="35%" r="65%">
      <stop offset="0%" stop-color="#D9F99D"/>
      <stop offset="100%" stop-color="#1A2E05"/>
    </radialGradient>
    <radialGradient id="ringB" cx="35%" cy="35%" r="65%">
      <stop offset="0%" stop-color="#BEF264"/>
      <stop offset="100%" stop-color="#3F6212"/>
    </radialGradient>
    <radialGradient id="ringC" cx="35%" cy="35%" r="65%">
      <stop offset="0%" stop-color="#ECFCCB"/>
      <stop offset="100%" stop-color="#65A30D"/>
    </radialGradient>
    <radialGradient id="pDot" cx="35%" cy="30%" r="65%">
      <stop offset="0%" stop-color="#F7FEE7"/>
      <stop offset="100%" stop-color="#1A2E05"/>
    </radialGradient>
    <radialGradient id="star" cx="30%" cy="25%" r="70%">
      <stop offset="0%" stop-color="#FFFBEB"/>
      <stop offset="100%" stop-color="#92400E"/>
    </radialGradient>
    <filter id="shadow" x="-25%" y="-25%" width="150%" height="150%">
      <feDropShadow dx="0" dy="10" stdDeviation="16" flood-color="#1A2E05" flood-opacity="0.22"/>
    </filter>
  </defs>

  <ellipse cx="250" cy="462" rx="135" ry="14" fill="#1A2E05" opacity="0.1"/>

  <g filter="url(#shadow)">
    <path d="M 58,308 A 192,52 0 0,0 442,308 L 442,338 A 192,52 0 0,1 58,338 Z" fill="#4D7C0F" opacity="0.65"/>
    <ellipse cx="250" cy="308" rx="192" ry="52" fill="url(#ringA)"/>
    <ellipse cx="250" cy="308" rx="130" ry="35" fill="url(#ringB)"/>

    <path d="M 100,248 A 150,40 0 0,0 400,248 L 400,275 A 150,40 0 0,1 100,275 Z" fill="#65A30D" opacity="0.65"/>
    <ellipse cx="250" cy="248" rx="150" ry="40" fill="url(#ringB)"/>
    <ellipse cx="250" cy="248" rx="88" ry="23" fill="url(#ringC)"/>

    <path d="M 162,196 A 88,23 0 0,0 338,196 L 338,220 A 88,23 0 0,1 162,220 Z" fill="#3F6212" opacity="0.6"/>
    <ellipse cx="250" cy="196" rx="88" ry="23" fill="url(#ringC)"/>
    <ellipse cx="238" cy="192" rx="55" ry="14" fill="rgba(255,255,255,0.22)"/>
  </g>

  <ellipse cx="234" cy="303" rx="115" ry="28" fill="rgba(255,255,255,0.18)"/>
  <ellipse cx="236" cy="244" rx="78" ry="18" fill="rgba(255,255,255,0.18)"/>
  <ellipse cx="238" cy="193" rx="48" ry="12" fill="rgba(255,255,255,0.24)"/>

  <circle cx="108" cy="306" r="12" fill="url(#pDot)"/>
  <circle cx="152" cy="283" r="12" fill="url(#pDot)"/>
  <circle cx="202" cy="270" r="12" fill="url(#pDot)"/>
  <circle cx="250" cy="267" r="12" fill="url(#pDot)"/>
  <circle cx="298" cy="270" r="12" fill="url(#pDot)"/>
  <circle cx="348" cy="283" r="12" fill="url(#pDot)"/>
  <circle cx="392" cy="306" r="12" fill="url(#pDot)"/>
  <circle cx="155" cy="330" r="12" fill="url(#pDot)" opacity="0.42"/>
  <circle cx="250" cy="340" r="12" fill="url(#pDot)" opacity="0.42"/>
  <circle cx="345" cy="330" r="12" fill="url(#pDot)" opacity="0.42"/>

  <circle cx="142" cy="246" r="12" fill="url(#pDot)"/>
  <circle cx="250" cy="232" r="12" fill="url(#pDot)"/>
  <circle cx="358" cy="246" r="12" fill="url(#pDot)"/>

  <path d="M250,174 L255,188 L270,188 L258.5,197 L263,211 L250,202 L237,211 L241.5,197 L230,188 L245,188 Z" fill="url(#star)"/>
</svg>
